Coordinates
version=1
nRows=11
nColumns=46
inDegrees=yes

Units are S.I. units (second, meters, Newtons, ...)
Angles are in degrees.

endheader
time	pelvis_tilt	pelvis_list	pelvis_rotation	pelvis_tx	pelvis_ty	pelvis_tz	bb_angle	bb_tx	bb_ty	bb_tz	hip_flexion_r	hip_adduction_r	hip_rotation_r	knee_angle_r	knee_angle_r_beta	ankle_angle_r	subtalar_angle_r	mtp_angle_r	crank_angle_r	hip_flexion_l	hip_adduction_l	hip_rotation_l	knee_angle_l	knee_angle_l_beta	ankle_angle_l	subtalar_angle_l	mtp_angle_l	crank_angle_l	lumbar_extension	lumbar_bending	lumbar_rotation	arm_flex_r	arm_add_r	arm_rot_r	elbow_flex_r	pro_sup_r	wrist_flex_r	wrist_dev_r	arm_flex_l	arm_add_l	arm_rot_l	elbow_flex_l	pro_sup_l	wrist_flex_l	wrist_dev_l
      0.00000000	    -22.70122948	     -0.16083625	     -2.23203736	      0.14807408	      1.03543065	     -0.22291072	      0.00000000	      0.50000000	      0.00000000	      0.25000000	     87.35238100	     -3.03474984	      2.07044721	     80.18314710	      1.39945992	     -6.75746298	     -5.23210538	      0.00000000	      0.00000000	     61.97468288	     -4.96618465	      3.08664022	     82.39731776	      1.43810449	    -14.72567610	    -13.31954175	      0.00000000	      0.00000000	    -37.80031480	     -0.22278655	      0.53345577	     79.61438260	     -4.51405699	     33.23030941	     30.77943484	     43.68823464	      0.00000000	      0.00000000	     75.79318635	     -9.34657758	     26.61286840	     33.10518427	     43.30083539	      0.00000000	      0.00000000
      0.00500000	    -22.72054186	     -0.16572856	     -2.25478149	      0.14808061	      1.03542187	     -0.22288301	      0.00000000	      0.50000000	      0.00000000	      0.25000000	     87.40171439	     -2.99655380	      2.08704239	     80.23013572	      1.40028003	     -6.73475936	     -5.22093432	      0.00000000	      0.00000000	     61.96390189	     -4.99339537	      3.07576042	     82.34053582	      1.43711346	    -14.68391801	    -13.24782484	      0.00000000	      0.00000000	    -37.81101237	     -0.22047847	      0.55258674	     79.54161481	     -4.23021997	     32.31332709	     30.70021918	     43.53726775	      0.00000000	      0.00000000	     75.73791636	     -9.12556747	     25.76174796	     33.09935461	     43.12794240	      0.00000000	      0.00000000
      0.01000000	    -22.75194646	     -0.18141595	     -2.28634669	      0.14807093	      1.03534795	     -0.22285039	      0.00000000	      0.50000000	      0.00000000	      0.25000000	     87.47216135	     -2.95173176	      2.07657347	     80.27714357	      1.40110047	     -6.78923350	     -5.30362116	      0.00000000	      0.00000000	     61.98273138	     -5.03326404	      3.07471792	     82.31342200	      1.43664023	    -14.67320871	    -13.23253177	      0.00000000	      0.00000000	    -37.84207412	     -0.22834101	      0.62956626	     79.44147740	     -4.62932447	     32.94028026	     31.18417439	     43.63766752	      0.00000000	      0.00000000	     75.70841229	     -9.31729971	     26.32882092	     33.38059055	     43.17270091	      0.00000000	      0.00000000
      0.01500000	    -22.75383230	     -0.12783685	     -2.28472078	      0.14808817	      1.03539353	     -0.22289694	      0.00000000	      0.50000000	      0.00000000	      0.25000000	     87.51091214	     -2.95109996	      2.17203486	     80.30068147	      1.40151128	     -6.80737334	     -5.24071091	      0.00000000	      0.00000000	     61.93510483	     -4.99028015	      3.03649266	     82.23683666	      1.43530357	    -14.65380465	    -13.10382676	      0.00000000	      0.00000000	    -37.90906386	     -0.26934242	      0.63563542	     79.28757355	     -4.61072616	     32.31352816	     31.46241318	     43.58139938	      0.00000000	      0.00000000	     75.62376009	     -9.23960243	     25.78936835	     33.57639154	     43.10893784	      0.00000000	      0.00000000
      0.02000000	    -22.82832255	     -0.10465079	     -2.33060152	      0.14803428	      1.03543894	     -0.22290115	      0.00000000	      0.50000000	      0.00000000	      0.25000000	     87.63997808	     -2.91774381	      2.21036601	     80.36505003	      1.40263473	     -6.76769060	     -5.15005440	      0.00000000	      0.00000000	     61.97837983	     -5.02686140	      2.96230363	     82.16451043	      1.43404124	    -14.79202128	    -13.33526051	      0.00000000	      0.00000000	    -37.84892483	     -0.31560669	      0.60025005	     79.07210158	     -4.32006545	     31.04456053	     31.75299175	     43.25128753	      0.00000000	      0.00000000	     75.45360300	     -9.03749300	     24.66508512	     33.84042769	     42.78763052	      0.00000000	      0.00000000
      0.02500000	    -22.91597494	     -0.09055580	     -2.34807702	      0.14802231	      1.03531778	     -0.22292397	      0.00000000	      0.50000000	      0.00000000	      0.25000000	     87.77925438	     -2.90181345	      2.23500127	     80.42105933	      1.40361227	     -6.83457175	     -5.17419286	      0.00000000	      0.00000000	     62.04359262	     -5.02835766	      2.96125890	     82.11600928	      1.43319473	    -14.79083170	    -13.32180391	      0.00000000	      0.00000000	    -37.82471727	     -0.30124727	      0.63662962	     79.02263691	     -4.34182741	     30.77765302	     31.99413402	     43.23204820	      0.00000000	      0.00000000	     75.29642495	     -9.04089738	     24.34807229	     34.18354463	     42.75536642	      0.00000000	      0.00000000
      0.03000000	    -22.92683431	     -0.14625941	     -2.41817475	      0.14802399	      1.03528797	     -0.22280595	      0.00000000	      0.50000000	      0.00000000	      0.25000000	     87.80701817	     -2.79542546	      2.19373784	     80.44592926	      1.40404634	     -6.89570538	     -5.34817713	      0.00000000	      0.00000000	     62.03517444	     -5.14851613	      2.97646114	     82.10689439	      1.43303565	    -14.62249351	    -13.14382159	      0.00000000	      0.00000000	    -37.89539351	     -0.30723186	      0.84126632	     79.06087134	     -5.25148335	     32.71258837	     32.63978006	     43.61856437	      0.00000000	      0.00000000	     75.43315600	     -9.51283900	     26.23712228	     34.37048604	     43.04713650	      0.00000000	      0.00000000
      0.03500000	    -23.00612165	     -0.12016733	     -2.45881894	      0.14806016	      1.03518386	     -0.22276661	      0.00000000	      0.50000000	      0.00000000	      0.25000000	     87.92735658	     -2.74669797	      2.23737093	     80.49508317	      1.40490423	     -6.92628565	     -5.39889658	      0.00000000	      0.00000000	     62.06989816	     -5.16599669	      2.91652560	     82.03404640	      1.43176421	    -14.68528731	    -13.29925681	      0.00000000	      0.00000000	    -37.87952083	     -0.35072000	      0.82249240	     78.80625349	     -5.28997078	     32.05693157	     33.36333361	     43.66324052	      0.00000000	      0.00000000	     75.15985373	     -9.58678459	     25.62776006	     35.12286262	     43.10690556	      0.00000000	      0.00000000
      0.04000000	    -23.00289557	     -0.13679532	     -2.48896671	      0.14807933	      1.03517363	     -0.22276108	      0.00000000	      0.50000000	      0.00000000	      0.25000000	     87.95411749	     -2.71062375	      2.23679263	     80.54918975	      1.40584857	     -6.86846436	     -5.33353137	      0.00000000	      0.00000000	     62.03228731	     -5.19843613	      2.92779197	     82.00672691	      1.43128739	    -14.53929292	    -13.16809545	      0.00000000	      0.00000000	    -37.90785900	     -0.34555412	      0.84107503	     78.98005159	     -5.34125236	     32.74854777	     33.02540140	     43.67691680	      0.00000000	      0.00000000	     75.30108648	     -9.67468190	     26.12976791	     34.84037710	     43.10828576	      0.00000000	      0.00000000
      0.04500000	    -23.05455732	     -0.12598438	     -2.51642000	      0.14814445	      1.03512922	     -0.22275532	      0.00000000	      0.50000000	      0.00000000	      0.25000000	     88.03142820	     -2.67656621	      2.26719112	     80.59195699	      1.40659500	     -6.84661604	     -5.33763880	      0.00000000	      0.00000000	     62.03646461	     -5.21454333	      2.89391253	     81.94219450	      1.43016109	    -14.50372159	    -13.19109860	      0.00000000	      0.00000000	    -37.90497618	     -0.35859105	      0.85477052	     78.88686745	     -5.05721160	     31.72050649	     33.09691903	     43.52537166	      0.00000000	      0.00000000	     75.18096034	     -9.46407275	     25.22081777	     34.99645496	     42.99485546	      0.00000000	      0.00000000
      0.05000000	    -23.06321382	     -0.11719518	     -2.57514957	      0.14828561	      1.03527542	     -0.22270688	      0.00000000	      0.50000000	      0.00000000	      0.25000000	     88.03681719	     -2.61711922	      2.30684196	     80.62100487	      1.40710198	     -6.64708969	     -5.11945310	      0.00000000	      0.00000000	     61.93627948	     -5.25471590	      2.91216488	     81.83343674	      1.42826291	    -14.01855361	    -12.62116892	      0.00000000	      0.00000000	    -38.05854187	     -0.36480212	      0.92298624	     78.54854848	     -5.27600370	     30.67212870	     34.71346317	     43.62411798	      0.00000000	      0.00000000	     74.62740442	     -9.65154736	     24.37873047	     36.51375742	     43.12213821	      0.00000000	      0.00000000
